name C:/MyDriveSym/Projects/mobilecap/Data\Session20210820_0002\mocap\ForceDataProcessed\walking2_forces.mot
datacolumns 19
datarows 22
range 0.00000000 0.01050000
endheader 
time	R_ground_force_vx	R_ground_force_vy	R_ground_force_vz	R_ground_force_px	R_ground_force_py	R_ground_force_pz	R_ground_torque_x	R_ground_torque_y	R_ground_torque_z	L_ground_force_vx	L_ground_force_vy	L_ground_force_vz	L_ground_force_px	L_ground_force_py	L_ground_force_pz	L_ground_torque_x	L_ground_torque_y	L_ground_torque_z	
          0.00000000	         50.19626900	         72.21606800	         -0.72807000	          0.11260300	          0.00600000	         -0.15652500	          0.00000000	          0.54053400	          0.00000000	          0.00000000	          0.00000000	          0.00000000	          0.78600600	          0.00000000	         -0.23996500	          0.00000000	          0.00000000	          0.00000000	
          0.00050000	         50.46643900	         73.45550400	         -0.70862900	          0.11260300	          0.00600000	         -0.15652500	          0.00000000	          0.55103500	          0.00000000	          0.00000000	          0.00000000	          0.00000000	          0.78600600	          0.00000000	         -0.23996500	          0.00000000	          0.00000000	          0.00000000	
          0.00100000	         50.71397400	         74.73500300	         -0.69227100	          0.11260300	          0.00600000	         -0.15652500	          0.00000000	          0.56151500	          0.00000000	          0.00000000	          0.00000000	          0.00000000	          0.78600600	          0.00000000	         -0.23996500	          0.00000000	          0.00000000	          0.00000000	
          0.00150000	         50.93446100	         76.05136600	         -0.67931600	          0.11260300	          0.00600000	         -0.15652500	          0.00000000	          0.57194300	          0.00000000	          0.00000000	          0.00000000	          0.00000000	          0.78600600	          0.00000000	         -0.23996500	          0.00000000	          0.00000000	          0.00000000	
          0.00200000	         51.12347600	         77.40132700	         -0.67000500	          0.11274800	          0.00600000	         -0.15641900	          0.00000000	          0.58228400	          0.00000000	          0.00000000	          0.00000000	          0.00000000	          0.78600600	          0.00000000	         -0.23996500	          0.00000000	          0.00000000	          0.00000000	
          0.00250000	         51.27661200	         78.78160000	         -0.66449600	          0.11289200	          0.00600000	         -0.15632100	          0.00000000	          0.59249900	          0.00000000	          0.00000000	          0.00000000	          0.00000000	          0.78600600	          0.00000000	         -0.23996500	          0.00000000	          0.00000000	          0.00000000	
          0.00300000	         51.38950100	         80.18890900	         -0.66284800	          0.11303400	          0.00600000	         -0.15623100	          0.00000000	          0.60255000	          0.00000000	          0.00000000	          0.00000000	          0.00000000	          0.78600600	          0.00000000	         -0.23996500	          0.00000000	          0.00000000	          0.00000000	
          0.00350000	         51.45783300	         81.62002800	         -0.66501200	          0.11317400	          0.00600000	         -0.15614900	          0.00000000	          0.61240500	          0.00000000	          0.00000000	          0.00000000	          0.00000000	          0.78600600	          0.00000000	         -0.23996500	          0.00000000	          0.00000000	          0.00000000	
          0.00400000	         51.47741100	         83.07181200	         -0.67081700	          0.11331300	          0.00600000	         -0.15607500	          0.00000000	          0.62203900	          0.00000000	          0.00000000	          0.00000000	          0.00000000	          0.78600600	          0.00000000	         -0.23996500	          0.00000000	          0.00000000	          0.00000000	
          0.00450000	         51.44421500	         84.54123100	         -0.67997600	          0.11345100	          0.00600000	         -0.15601000	          0.00000000	          0.63142700	          0.00000000	          0.00000000	          0.00000000	          0.00000000	          0.78600600	          0.00000000	         -0.23996500	          0.00000000	          0.00000000	          0.00000000	
          0.00500000	         51.35446000	         86.02541600	         -0.69210500	          0.11358800	          0.00600000	         -0.15595400	          0.00000000	          0.64053700	          0.00000000	          0.00000000	          0.00000000	          0.00000000	          0.78600600	          0.00000000	         -0.23996500	          0.00000000	          0.00000000	          0.00000000	
          0.00550000	         51.20463300	         87.52170900	         -0.70675500	          0.11372400	          0.00600000	         -0.15590700	          0.00000000	          0.64933600	          0.00000000	          0.00000000	          0.00000000	          0.00000000	          0.78600600	          0.00000000	         -0.23996500	          0.00000000	          0.00000000	          0.00000000	
          0.00600000	         50.99152400	         89.02771100	         -0.72343000	          0.11386000	          0.00600000	         -0.15586900	          0.00000000	          0.65779700	          0.00000000	          0.00000000	          0.00000000	          0.00000000	          0.78600600	          0.00000000	         -0.23996500	          0.00000000	          0.00000000	          0.00000000	
          0.00650000	         50.71225500	         90.54131100	         -0.74159900	          0.11399600	          0.00600000	         -0.15583900	          0.00000000	          0.66589500	          0.00000000	          0.00000000	          0.00000000	          0.00000000	          0.78600600	          0.00000000	         -0.23996500	          0.00000000	          0.00000000	          0.00000000	
          0.00700000	         50.36432200	         92.06070600	         -0.76070400	          0.11413100	          0.00600000	         -0.15581900	          0.00000000	          0.67361100	          0.00000000	          0.00000000	          0.00000000	          0.00000000	          0.78600600	          0.00000000	         -0.23996500	          0.00000000	          0.00000000	          0.00000000	
          0.00750000	         49.94562300	         93.58442200	         -0.78016200	          0.11426700	          0.00600000	         -0.15580700	          0.00000000	          0.68091400	          0.00000000	          0.00000000	          0.00000000	          0.00000000	          0.78600600	          0.00000000	         -0.23996500	          0.00000000	          0.00000000	          0.00000000	
          0.00800000	         49.45447400	         95.11131700	         -0.79936500	          0.11440400	          0.00600000	         -0.15580400	          0.00000000	          0.68777400	          0.00000000	          0.00000000	          0.00000000	          0.00000000	          0.78600600	          0.00000000	         -0.23996500	          0.00000000	          0.00000000	          0.00000000	
          0.00850000	         48.88960300	         96.64056300	         -0.81768200	          0.11454100	          0.00600000	         -0.15580900	          0.00000000	          0.69416400	          0.00000000	          0.00000000	          0.00000000	          0.00000000	          0.78600600	          0.00000000	         -0.23996500	          0.00000000	          0.00000000	          0.00000000	
          0.00900000	         48.25016800	         98.17160700	         -0.83446000	          0.11467900	          0.00600000	         -0.15582200	          0.00000000	          0.70006600	          0.00000000	          0.00000000	          0.00000000	          0.00000000	          0.78600600	          0.00000000	         -0.23996500	          0.00000000	          0.00000000	          0.00000000	
          0.00950000	         47.53579000	         99.70416200	         -0.84901800	          0.11481700	          0.00600000	         -0.15584300	          0.00000000	          0.70546700	          0.00000000	          0.00000000	          0.00000000	          0.00000000	          0.78600600	          0.00000000	         -0.23996500	          0.00000000	          0.00000000	          0.00000000	
          0.01000000	         46.74657800	        101.23823200	         -0.86064600	          0.11495600	          0.00600000	         -0.15587200	          0.00000000	          0.71035600	          0.00000000	          0.00000000	          0.00000000	          0.00000000	          0.78600600	          0.00000000	         -0.23996500	          0.00000000	          0.00000000	          0.00000000	
          0.01050000	         45.88314100	        102.77415000	         -0.86860900	          0.11509500	          0.00600000	         -0.15590800	          0.00000000	          0.71472400	          0.00000000	          0.00000000	          0.00000000	          0.00000000	          0.78600600	          0.00000000	         -0.23996500	          0.00000000	          0.00000000	          0.00000000	
